<mxfile host="app.diagrams.net" agent="Mozilla/5.0 (Windows NT 10.0; Win64; x64) AppleWebKit/537.36 (KHTML, like Gecko) Chrome/130.0.0.0 Safari/537.36" version="24.8.4">
  <diagram name="Trang-1" id="-a8Z6UhnuRNHjZpXbeR-">
    <mxGraphModel dx="1954" dy="491" grid="1" gridSize="10" guides="1" tooltips="1" connect="1" arrows="1" fold="1" page="1" pageScale="1" pageWidth="827" pageHeight="1169" math="0" shadow="0">
      <root>
        <mxCell id="0" />
        <mxCell id="1" parent="0" />
        <mxCell id="4mUNGZykfSJRsMWHa9BW-7" value="LOGIN" style="text;html=1;align=center;verticalAlign=middle;resizable=0;points=[];autosize=1;strokeColor=#6c8ebf;fillColor=#dae8fc;" parent="1" vertex="1">
          <mxGeometry x="-190" y="95" width="60" height="30" as="geometry" />
        </mxCell>
        <mxCell id="4mUNGZykfSJRsMWHa9BW-8" value="" style="shape=umlLifeline;perimeter=lifelinePerimeter;whiteSpace=wrap;html=1;container=1;dropTarget=0;collapsible=0;recursiveResize=0;outlineConnect=0;portConstraint=eastwest;newEdgeStyle={&quot;curved&quot;:0,&quot;rounded&quot;:0};participant=umlActor;" parent="1" vertex="1">
          <mxGeometry x="-60" y="90" width="20" height="420" as="geometry" />
        </mxCell>
        <mxCell id="4mUNGZykfSJRsMWHa9BW-9" value="UI" style="shape=umlLifeline;perimeter=lifelinePerimeter;whiteSpace=wrap;html=1;container=1;dropTarget=0;collapsible=0;recursiveResize=0;outlineConnect=0;portConstraint=eastwest;newEdgeStyle={&quot;curved&quot;:0,&quot;rounded&quot;:0};" parent="1" vertex="1">
          <mxGeometry x="100" y="95" width="100" height="415" as="geometry" />
        </mxCell>
        <mxCell id="4mUNGZykfSJRsMWHa9BW-16" value="" style="html=1;points=[[0,0,0,0,5],[0,1,0,0,-5],[1,0,0,0,5],[1,1,0,0,-5]];perimeter=orthogonalPerimeter;outlineConnect=0;targetShapes=umlLifeline;portConstraint=eastwest;newEdgeStyle={&quot;curved&quot;:0,&quot;rounded&quot;:0};" parent="4mUNGZykfSJRsMWHa9BW-9" vertex="1">
          <mxGeometry x="45" y="87.5" width="10" height="292.5" as="geometry" />
        </mxCell>
        <mxCell id="4mUNGZykfSJRsMWHa9BW-10" value="API Server" style="shape=umlLifeline;perimeter=lifelinePerimeter;whiteSpace=wrap;html=1;container=1;dropTarget=0;collapsible=0;recursiveResize=0;outlineConnect=0;portConstraint=eastwest;newEdgeStyle={&quot;curved&quot;:0,&quot;rounded&quot;:0};" parent="1" vertex="1">
          <mxGeometry x="300" y="95" width="100" height="425" as="geometry" />
        </mxCell>
        <mxCell id="4mUNGZykfSJRsMWHa9BW-56" value="" style="html=1;points=[[0,0,0,0,5],[0,1,0,0,-5],[1,0,0,0,5],[1,1,0,0,-5]];perimeter=orthogonalPerimeter;outlineConnect=0;targetShapes=umlLifeline;portConstraint=eastwest;newEdgeStyle={&quot;curved&quot;:0,&quot;rounded&quot;:0};" parent="4mUNGZykfSJRsMWHa9BW-10" vertex="1">
          <mxGeometry x="45" y="105" width="10" height="295" as="geometry" />
        </mxCell>
        <mxCell id="4mUNGZykfSJRsMWHa9BW-11" value="Database" style="shape=umlLifeline;perimeter=lifelinePerimeter;whiteSpace=wrap;html=1;container=1;dropTarget=0;collapsible=0;recursiveResize=0;outlineConnect=0;portConstraint=eastwest;newEdgeStyle={&quot;curved&quot;:0,&quot;rounded&quot;:0};" parent="1" vertex="1">
          <mxGeometry x="540" y="95" width="100" height="455" as="geometry" />
        </mxCell>
        <mxCell id="enZPoDcmj9S5zknJX-PJ-5" value="" style="html=1;points=[[0,0,0,0,5],[0,1,0,0,-5],[1,0,0,0,5],[1,1,0,0,-5]];perimeter=orthogonalPerimeter;outlineConnect=0;targetShapes=umlLifeline;portConstraint=eastwest;newEdgeStyle={&quot;curved&quot;:0,&quot;rounded&quot;:0};" parent="4mUNGZykfSJRsMWHa9BW-11" vertex="1">
          <mxGeometry x="45" y="110" width="10" height="210" as="geometry" />
        </mxCell>
        <mxCell id="4mUNGZykfSJRsMWHa9BW-12" value="Người dùng nhập &lt;code&gt;email&lt;/code&gt;, &lt;code&gt;phoneNumber&lt;/code&gt;, &lt;code&gt;password&lt;/code&gt;&amp;nbsp;" style="html=1;verticalAlign=bottom;endArrow=block;curved=0;rounded=0;" parent="1" target="4mUNGZykfSJRsMWHa9BW-9" edge="1">
          <mxGeometry x="-0.198" width="80" relative="1" as="geometry">
            <mxPoint x="-50" y="180" as="sourcePoint" />
            <mxPoint x="30" y="190" as="targetPoint" />
            <mxPoint as="offset" />
          </mxGeometry>
        </mxCell>
        <mxCell id="4mUNGZykfSJRsMWHa9BW-13" value="Gửi thông tin đăng nhập" style="html=1;verticalAlign=bottom;endArrow=block;curved=0;rounded=0;" parent="1" edge="1">
          <mxGeometry width="80" relative="1" as="geometry">
            <mxPoint x="160" y="200" as="sourcePoint" />
            <mxPoint x="350" y="200" as="targetPoint" />
          </mxGeometry>
        </mxCell>
        <mxCell id="4mUNGZykfSJRsMWHa9BW-23" value="alternative" style="shape=umlFrame;whiteSpace=wrap;html=1;pointerEvents=0;" parent="1" vertex="1">
          <mxGeometry x="-170" y="230" width="810" height="300" as="geometry" />
        </mxCell>
        <mxCell id="4mUNGZykfSJRsMWHa9BW-24" value="mật khẩu không khớp" style="html=1;verticalAlign=bottom;endArrow=open;dashed=1;endSize=8;curved=0;rounded=0;" parent="1" edge="1">
          <mxGeometry relative="1" as="geometry">
            <mxPoint x="350" y="340" as="sourcePoint" />
            <mxPoint x="150" y="340" as="targetPoint" />
          </mxGeometry>
        </mxCell>
        <mxCell id="4mUNGZykfSJRsMWHa9BW-26" value="[Invaild user]" style="text;html=1;align=center;verticalAlign=middle;resizable=0;points=[];autosize=1;strokeColor=none;fillColor=none;" parent="1" vertex="1">
          <mxGeometry x="-140" y="270" width="90" height="30" as="geometry" />
        </mxCell>
        <mxCell id="4mUNGZykfSJRsMWHa9BW-27" value="[Vaild user]" style="text;html=1;align=center;verticalAlign=middle;resizable=0;points=[];autosize=1;strokeColor=none;fillColor=none;" parent="1" vertex="1">
          <mxGeometry x="-140" y="410" width="80" height="30" as="geometry" />
        </mxCell>
        <mxCell id="4mUNGZykfSJRsMWHa9BW-28" value="tạo &lt;code&gt;token&lt;/code&gt; (access token)&amp;nbsp;" style="html=1;verticalAlign=bottom;endArrow=open;dashed=1;endSize=8;curved=0;rounded=0;" parent="1" edge="1">
          <mxGeometry relative="1" as="geometry">
            <mxPoint x="339.5" y="430.00000000000006" as="sourcePoint" />
            <mxPoint x="150" y="430.00000000000006" as="targetPoint" />
          </mxGeometry>
        </mxCell>
        <mxCell id="4mUNGZykfSJRsMWHa9BW-29" value="Invalid email or password" style="html=1;verticalAlign=bottom;endArrow=open;dashed=1;endSize=8;curved=0;rounded=0;" parent="1" edge="1">
          <mxGeometry relative="1" as="geometry">
            <mxPoint x="160" y="360" as="sourcePoint" />
            <mxPoint x="-40" y="360" as="targetPoint" />
          </mxGeometry>
        </mxCell>
        <mxCell id="4mUNGZykfSJRsMWHa9BW-30" value="Đăng ký thành công" style="html=1;verticalAlign=bottom;endArrow=open;dashed=1;endSize=8;curved=0;rounded=0;" parent="1" edge="1">
          <mxGeometry relative="1" as="geometry">
            <mxPoint x="150" y="450" as="sourcePoint" />
            <mxPoint x="-40" y="450" as="targetPoint" />
          </mxGeometry>
        </mxCell>
        <mxCell id="CPYWnVON4yuFQvjh3AQ9-16" value="kiểm tra thông tin" style="html=1;align=left;spacingLeft=2;endArrow=block;rounded=0;edgeStyle=orthogonalEdgeStyle;curved=0;rounded=0;" parent="1" edge="1">
          <mxGeometry x="-0.5294" y="10" relative="1" as="geometry">
            <mxPoint x="590" y="220" as="sourcePoint" />
            <Array as="points">
              <mxPoint x="620" y="250" />
            </Array>
            <mxPoint x="595" y="250" as="targetPoint" />
            <mxPoint as="offset" />
          </mxGeometry>
        </mxCell>
        <mxCell id="enZPoDcmj9S5zknJX-PJ-1" value="Trả về phản hồi" style="html=1;verticalAlign=bottom;endArrow=open;dashed=1;endSize=8;curved=0;rounded=0;" parent="1" edge="1">
          <mxGeometry relative="1" as="geometry">
            <mxPoint x="349.5" y="270" as="sourcePoint" />
            <mxPoint x="150" y="270" as="targetPoint" />
          </mxGeometry>
        </mxCell>
        <mxCell id="enZPoDcmj9S5zknJX-PJ-2" value="Invalid email or password" style="html=1;verticalAlign=bottom;endArrow=open;dashed=1;endSize=8;curved=0;rounded=0;" parent="1" edge="1">
          <mxGeometry relative="1" as="geometry">
            <mxPoint x="149.5" y="280" as="sourcePoint" />
            <mxPoint x="-40" y="280" as="targetPoint" />
          </mxGeometry>
        </mxCell>
        <mxCell id="enZPoDcmj9S5zknJX-PJ-8" value="&lt;span class=&quot;hljs-selector-tag&quot;&gt;Tr&lt;/span&gt;ả &lt;span class=&quot;hljs-selector-tag&quot;&gt;v&lt;/span&gt;ề &lt;span class=&quot;hljs-selector-tag&quot;&gt;user&lt;/span&gt; &lt;span class=&quot;hljs-selector-tag&quot;&gt;info&lt;/span&gt; &lt;span class=&quot;hljs-selector-tag&quot;&gt;v&lt;/span&gt;à &lt;span class=&quot;hljs-selector-tag&quot;&gt;password&lt;/span&gt; đã &lt;span class=&quot;hljs-selector-tag&quot;&gt;m&lt;/span&gt;ã &lt;span class=&quot;hljs-selector-tag&quot;&gt;h&lt;/span&gt;ó&lt;span class=&quot;hljs-selector-tag&quot;&gt;a&lt;/span&gt;" style="html=1;verticalAlign=bottom;endArrow=open;dashed=1;endSize=8;curved=0;rounded=0;" parent="1" edge="1">
          <mxGeometry x="-0.2" y="26" relative="1" as="geometry">
            <mxPoint x="580" y="324.29" as="sourcePoint" />
            <mxPoint x="355" y="324.29" as="targetPoint" />
            <mxPoint x="1" as="offset" />
          </mxGeometry>
        </mxCell>
        <mxCell id="enZPoDcmj9S5zknJX-PJ-9" value="" style="html=1;points=[[0,0,0,0,5],[0,1,0,0,-5],[1,0,0,0,5],[1,1,0,0,-5]];perimeter=orthogonalPerimeter;outlineConnect=0;targetShapes=umlLifeline;portConstraint=eastwest;newEdgeStyle={&quot;curved&quot;:0,&quot;rounded&quot;:0};" parent="1" vertex="1">
          <mxGeometry x="-55" y="180" width="10" height="310" as="geometry" />
        </mxCell>
        <mxCell id="enZPoDcmj9S5zknJX-PJ-10" value="" style="endArrow=none;dashed=1;html=1;rounded=0;exitX=0.005;exitY=0.601;exitDx=0;exitDy=0;exitPerimeter=0;" parent="1" edge="1">
          <mxGeometry width="50" height="50" relative="1" as="geometry">
            <mxPoint x="-160" y="379.5" as="sourcePoint" />
            <mxPoint x="640" y="379.5" as="targetPoint" />
          </mxGeometry>
        </mxCell>
        <mxCell id="HFi5EjZitsS3R7-4-ney-1" value="&lt;span class=&quot;hljs-selector-tag&quot;&gt;T&lt;/span&gt;ì&lt;span class=&quot;hljs-selector-tag&quot;&gt;m&lt;/span&gt; &lt;span class=&quot;hljs-selector-tag&quot;&gt;user&lt;/span&gt; &lt;span class=&quot;hljs-selector-tag&quot;&gt;b&lt;/span&gt;ằ&lt;span class=&quot;hljs-selector-tag&quot;&gt;ng&lt;/span&gt; &lt;span class=&quot;hljs-selector-tag&quot;&gt;email&lt;/span&gt;" style="html=1;verticalAlign=bottom;endArrow=block;curved=0;rounded=0;" edge="1" parent="1" target="4mUNGZykfSJRsMWHa9BW-11">
          <mxGeometry width="80" relative="1" as="geometry">
            <mxPoint x="360" y="210" as="sourcePoint" />
            <mxPoint x="440" y="210" as="targetPoint" />
          </mxGeometry>
        </mxCell>
        <mxCell id="HFi5EjZitsS3R7-4-ney-2" value="user không tồn tại" style="html=1;verticalAlign=bottom;endArrow=open;dashed=1;endSize=8;curved=0;rounded=0;" edge="1" parent="1">
          <mxGeometry relative="1" as="geometry">
            <mxPoint x="579.5" y="260" as="sourcePoint" />
            <mxPoint x="350" y="260" as="targetPoint" />
          </mxGeometry>
        </mxCell>
        <mxCell id="HFi5EjZitsS3R7-4-ney-4" value="kiểm tra password" style="html=1;align=left;spacingLeft=2;endArrow=block;rounded=0;edgeStyle=orthogonalEdgeStyle;curved=0;rounded=0;" edge="1" parent="1">
          <mxGeometry x="-0.5294" y="10" relative="1" as="geometry">
            <mxPoint x="350" y="310" as="sourcePoint" />
            <Array as="points">
              <mxPoint x="380" y="340" />
            </Array>
            <mxPoint x="355" y="340" as="targetPoint" />
            <mxPoint as="offset" />
          </mxGeometry>
        </mxCell>
        <mxCell id="HFi5EjZitsS3R7-4-ney-5" value="&lt;span class=&quot;hljs-selector-tag&quot;&gt;Tr&lt;/span&gt;ả &lt;span class=&quot;hljs-selector-tag&quot;&gt;v&lt;/span&gt;ề &lt;span class=&quot;hljs-selector-tag&quot;&gt;user&lt;/span&gt; &lt;span class=&quot;hljs-selector-tag&quot;&gt;info&lt;/span&gt; &lt;span class=&quot;hljs-selector-tag&quot;&gt;v&lt;/span&gt;à &lt;span class=&quot;hljs-selector-tag&quot;&gt;password&lt;/span&gt; đã &lt;span class=&quot;hljs-selector-tag&quot;&gt;m&lt;/span&gt;ã &lt;span class=&quot;hljs-selector-tag&quot;&gt;h&lt;/span&gt;ó&lt;span class=&quot;hljs-selector-tag&quot;&gt;a&lt;/span&gt;" style="html=1;verticalAlign=bottom;endArrow=open;dashed=1;endSize=8;curved=0;rounded=0;" edge="1" parent="1">
          <mxGeometry relative="1" as="geometry">
            <mxPoint x="575" y="410" as="sourcePoint" />
            <mxPoint x="350" y="410" as="targetPoint" />
          </mxGeometry>
        </mxCell>
      </root>
    </mxGraphModel>
  </diagram>
</mxfile>
